<svg xmlns="http://www.w3.org/2000/svg"  viewBox="0 0 64 64" width="64px" height="64px" baseProfile="basic"><linearGradient id="0qb8yxgfLwk904IcbV3xua" x1="32.4" x2="32.4" y1="6.038" y2="30.891" gradientUnits="userSpaceOnUse"><stop offset="0" stop-color="#6dc7ff"/><stop offset="1" stop-color="#e6abff"/></linearGradient><path fill="url(#0qb8yxgfLwk904IcbV3xua)" d="M34.581,20.577c4.496,0,8.355,2.723,10.022,6.609l11.059-9.953	C51.088,10.478,43.353,6.038,34.581,6.038c-14.051,0-25.442,11.391-25.442,25.442c0,3.315,0.634,6.481,1.787,9.385	C15.369,21.615,28.559,20.577,34.581,20.577z"/><linearGradient id="0qb8yxgfLwk904IcbV3xub" x1="32.4" x2="32.4" y1="59" y2="5" gradientUnits="userSpaceOnUse"><stop offset="0" stop-color="#c822ff"/><stop offset="1" stop-color="#1a6dff"/></linearGradient><path fill="url(#0qb8yxgfLwk904IcbV3xub)" d="M45.003,35.561	c-0.242-0.209-0.568-0.292-0.88-0.23c-0.313,0.064-0.581,0.268-0.724,0.554c-1.686,3.369-5.066,5.462-8.818,5.462	c-5.44,0-9.865-4.426-9.865-9.865s4.426-9.865,9.865-9.865c3.95,0,7.51,2.347,9.068,5.98c0.132,0.307,0.405,0.533,0.731,0.604	c0.328,0.07,0.668-0.019,0.918-0.242l11.058-9.953c0.385-0.347,0.456-0.925,0.165-1.354C51.582,9.355,43.379,5,34.581,5	C19.979,5,8.1,16.879,8.1,31.481c0,0.798,0.042,1.589,0.111,2.373c0.02,0.228,0.057,0.454,0.083,0.681	c0.064,0.563,0.138,1.123,0.238,1.678c0.045,0.248,0.101,0.493,0.153,0.739c0.112,0.536,0.238,1.068,0.383,1.595	c0.066,0.239,0.137,0.477,0.21,0.714c0.163,0.529,0.343,1.052,0.539,1.57c0.052,0.138,0.089,0.28,0.143,0.417	c0.013,0.034,0.037,0.06,0.053,0.091c0.892,2.215,2.074,4.321,3.568,6.263c2.395,5.085-2.795,9.369-3.018,9.55	c-0.342,0.277-0.473,0.739-0.327,1.154C10.384,58.722,10.775,59,11.215,59c5.062,0,8.685-2.136,10.96-4.126	c3.808,2.022,8.081,3.088,12.406,3.088c8.689,0,16.833-4.275,21.786-11.433c0.303-0.438,0.226-1.033-0.178-1.379L45.003,35.561z M34.581,7.077c7.808,0,15.105,3.721,19.701,10l-9.362,8.426c-2.116-3.665-6.036-5.965-10.339-5.965	c-12.012,0-19.98,5.935-23.726,17.651c-0.121-0.507-0.231-1.018-0.319-1.534c-0.028-0.165-0.048-0.331-0.073-0.497	c-0.067-0.444-0.123-0.89-0.165-1.339c-0.017-0.178-0.034-0.356-0.047-0.535c-0.043-0.598-0.073-1.199-0.073-1.805	C10.177,18.024,21.124,7.077,34.581,7.077z M34.581,55.885c-4.22,0-8.384-1.1-12.044-3.182c-0.399-0.227-0.899-0.166-1.23,0.151	c-1.564,1.493-4.023,3.216-7.43,3.834c1.888-2.451,3.434-6.183,1.526-10.088c-0.031-0.064-0.069-0.125-0.113-0.182	c-1.359-1.753-2.444-3.651-3.269-5.648c2.836-11.864,9.104-16.383,14.526-18.099c-2.395,2.185-3.908,5.32-3.908,8.81	c0,6.585,5.358,11.942,11.942,11.942c4.103,0,7.837-2.066,10.026-5.468l9.506,8.149C49.509,52.246,42.276,55.885,34.581,55.885z"/></svg>