<svg width="18" height="18" viewBox="0 0 18 18" fill="none" xmlns="http://www.w3.org/2000/svg">
<rect width="18" height="18" rx="8" fill="#8FA0AF"/>
<path fill-rule="evenodd" clip-rule="evenodd" d="M9 3.5C7.067 3.5 5.5 5.067 5.5 7C5.5 8.933 7.067 10.5 9 10.5C10.933 10.5 12.5 8.933 12.5 7C12.5 5.067 10.933 3.5 9 3.5ZM4.5 7C4.5 4.51472 6.51472 2.5 9 2.5C11.4853 2.5 13.5 4.51472 13.5 7C13.5 9.48528 11.4853 11.5 9 11.5C6.51472 11.5 4.5 9.48528 4.5 7Z" fill="white"/>
<path fill-rule="evenodd" clip-rule="evenodd" d="M9.00008 11.4994C7.85899 11.4994 6.73801 11.7998 5.74982 12.3704C4.76164 12.941 3.94107 13.7616 3.37062 14.7499C3.23257 14.9891 2.92678 15.071 2.68762 14.933C2.44846 14.7949 2.3665 14.4891 2.50455 14.25C3.16276 13.1097 4.10957 12.1627 5.24978 11.5044C6.39 10.846 7.68344 10.4994 9.00008 10.4994C10.3167 10.4994 11.6102 10.846 12.7504 11.5044C13.8906 12.1627 14.8374 13.1097 15.4956 14.25C15.6337 14.4891 15.5517 14.7949 15.3125 14.933C15.0734 15.071 14.7676 14.9891 14.6295 14.7499C14.0591 13.7616 13.2385 12.941 12.2503 12.3704C11.2622 11.7998 10.1412 11.4994 9.00008 11.4994Z" fill="white"/>
</svg>
