<svg width="40" height="40" viewBox="0 0 40 40" fill="none" xmlns="http://www.w3.org/2000/svg">
<rect width="40" height="40" rx="20" fill="#8FA0AF"/>
<path fill-rule="evenodd" clip-rule="evenodd" d="M20 11.75C17.1005 11.75 14.75 14.1005 14.75 17C14.75 19.8995 17.1005 22.25 20 22.25C22.8995 22.25 25.25 19.8995 25.25 17C25.25 14.1005 22.8995 11.75 20 11.75ZM13.25 17C13.25 13.2721 16.2721 10.25 20 10.25C23.7279 10.25 26.75 13.2721 26.75 17C26.75 20.7279 23.7279 23.75 20 23.75C16.2721 23.75 13.25 20.7279 13.25 17Z" fill="white"/>
<path fill-rule="evenodd" clip-rule="evenodd" d="M20.0001 23.7491C18.2885 23.7491 16.607 24.1997 15.1247 25.0556C13.6425 25.9114 12.4116 27.1425 11.5559 28.6249C11.3489 28.9836 10.8902 29.1065 10.5314 28.8995C10.1727 28.6924 10.0497 28.2337 10.2568 27.875C11.2441 26.1645 12.6644 24.7441 14.3747 23.7566C16.085 22.769 18.0252 22.2491 20.0001 22.2491C21.9751 22.2491 23.9153 22.769 25.6256 23.7566C27.3359 24.7441 28.7561 26.1645 29.7434 27.875C29.9505 28.2337 29.8276 28.6924 29.4688 28.8995C29.1101 29.1065 28.6514 28.9836 28.4443 28.6249C27.5886 27.1425 26.3578 25.9114 24.8755 25.0556C23.3932 24.1997 21.7118 23.7491 20.0001 23.7491Z" fill="white"/>
</svg>
