<svg width="64" height="64" viewBox="0 0 64 64" fill="none" xmlns="http://www.w3.org/2000/svg">
<rect width="64" height="64" rx="32" fill="#8FA0AF"/>
<path fill-rule="evenodd" clip-rule="evenodd" d="M32 21C28.134 21 25 24.134 25 28C25 31.866 28.134 35 32 35C35.866 35 39 31.866 39 28C39 24.134 35.866 21 32 21ZM23 28C23 23.0294 27.0294 19 32 19C36.9706 19 41 23.0294 41 28C41 32.9706 36.9706 37 32 37C27.0294 37 23 32.9706 23 28Z" fill="white"/>
<path fill-rule="evenodd" clip-rule="evenodd" d="M32.0002 36.9988C29.718 36.9988 27.476 37.5996 25.4996 38.7407C23.5233 39.8819 21.8821 41.5233 20.7412 43.4998C20.4651 43.9781 19.8536 44.1421 19.3752 43.866C18.8969 43.5899 18.733 42.9783 19.0091 42.5C20.3255 40.2194 22.2191 38.3255 24.4996 37.0087C26.78 35.692 29.3669 34.9988 32.0002 34.9988C34.6335 34.9988 37.2203 35.692 39.5008 37.0087C41.7812 38.3255 43.6748 40.2194 44.9912 42.5C45.2673 42.9783 45.1034 43.5899 44.6251 43.866C44.1468 44.1421 43.5352 43.9781 43.2591 43.4998C42.1182 41.5233 40.4771 39.8819 38.5007 38.7407C36.5243 37.5996 34.2823 36.9988 32.0002 36.9988Z" fill="white"/>
</svg>
