<?xml version="1.0" encoding="UTF-8"?>
<svg xmlns="http://www.w3.org/2000/svg" xmlns:xlink="http://www.w3.org/1999/xlink" width="32px" height="32px" viewBox="0 0 32 32" version="1.1">
<g id="surface1">
<path style=" stroke:none;fill-rule:nonzero;fill:rgb(56.078431%,62.745098%,68.627451%);fill-opacity:1;" d="M 3.882812 30.542969 C 3.230469 30.542969 2.667969 30.304688 2.179688 29.820312 C 1.695312 29.332031 1.457031 28.769531 1.457031 28.117188 L 1.457031 3.882812 C 1.457031 3.230469 1.695312 2.667969 2.179688 2.179688 C 2.667969 1.695312 3.230469 1.457031 3.882812 1.457031 L 15.636719 1.457031 L 15.636719 3.882812 L 3.882812 3.882812 L 3.882812 28.117188 L 15.636719 28.117188 L 15.636719 30.542969 Z M 23.515625 23.070312 L 21.777344 21.332031 L 25.898438 17.210938 L 11.757812 17.210938 L 11.757812 14.789062 L 25.820312 14.789062 L 21.695312 10.667969 L 23.433594 8.929688 L 30.542969 16.042969 Z M 23.515625 23.070312 "/>
</g>
</svg>
