<?xml version="1.0" encoding="UTF-8"?>
<svg xmlns="http://www.w3.org/2000/svg" xmlns:xlink="http://www.w3.org/1999/xlink" width="40px" height="40px" viewBox="0 0 40 40" version="1.1">
<g id="surface1">
<path style=" stroke:none;fill-rule:nonzero;fill:rgb(0%,0%,0%);fill-opacity:1;" d="M 7.5 35 C 6.832031 35 6.25 34.75 5.75 34.25 C 5.25 33.75 5 33.167969 5 32.5 L 5 7.5 C 5 6.832031 5.25 6.25 5.75 5.75 C 6.25 5.25 6.832031 5 7.5 5 L 19.625 5 L 19.625 7.5 L 7.5 7.5 L 7.5 32.5 L 19.625 32.5 L 19.625 35 Z M 27.75 27.292969 L 25.957031 25.5 L 30.207031 21.25 L 15.625 21.25 L 15.625 18.75 L 30.125 18.75 L 25.875 14.5 L 27.667969 12.707031 L 35 20.042969 Z M 27.75 27.292969 "/>
</g>
</svg>
